# xmcd CD database file
# Copyright (C) 1995-1998 Ti Kan
#
# Track frame offsets:
#	182
#	15482
#	34715
#	51245
#	67560
#	85895
#	99340
#	113882
#	128312
#	140737
#	155575
#	175225
#	192105
#	207090
#	219632
#
# Disc length: 3215 seconds
#
# Revision: 1
# Processed by: cddbd v1.4b41PL1 Copyright (c) Steve Scherf et al.
# Submitted via: CDex 1.30Release
#
DISCID=c10c8d0f
DTITLE=Blackhawk - Greatest Hits
DYEAR=1900
DGENRE=Country
TTITLE0=Goodbye Says It All
TTITLE1=I'm Not Strong Enough To Say No
TTITLE2=Every Once In A While
TTITLE3=I Sure Can Smell The Rain
TTITLE4=THat's Just About Right
TTITLE5=Big Guitar
TTITLE6=Almost A Memory Now
TTITLE7=There You Have It
TTITLE8=Always Have, Always Will
TTITLE9=Like There Aint't No Yesterday
TTITLE10=Postmarked Birmingham
TTITLE11=Down In Flames
TTITLE12=It Takes A Woman
TTITLE13=I Need You All The Same
TTITLE14=Ships In Heaven
EXTD=ID3G:   2
EXTT0=
EXTT1=
EXTT2=
EXTT3=
EXTT4=
EXTT5=
EXTT6=
EXTT7=
EXTT8=
EXTT9=
EXTT10=
EXTT11=
EXTT12=
EXTT13=
EXTT14=
PLAYORDER=
